<?xml version="1.0" encoding="UTF-8" standalone="no"?><svg xmlns="http://www.w3.org/2000/svg" width="1024" height="1024" viewBox="0 0 1024 1024"><path fill="#999" d="M112.934 877.16c-17.61 0-31.9-14.26-31.9-31.9V398.685c0-17.61 14.29-31.9 31.9-31.9 17.604 0 31.894 14.29 31.894 31.9V845.26c0 17.64-14.29 31.9-31.894 31.9zm765.878-510.374H690.034c13.75-31.9 29.506-114.358 20.287-189.347-7.3-59.845-42.232-105.742-93.426-123.066-37.96-12.854-77.96-6.6-99.522 15.405-25.715 26.224-37.77 75.666-50.528 127.946-8.357 34.228-17.002 69.666-27.754 87.878-31.004 52.728-95.95 76.783-109.027 81.182h-89.538c-17.61 0-31.9 14.29-31.9 31.9V845.26c0 17.64 14.29 31.9 31.9 31.9h86.316c26.67 14.446 126.002 63.797 240.992 63.797h215.25c35.44 0 96.495-13.716 119.332-51.55 23.06-38.34 71.71-387.437 71.71-426.127 0-53.302-52.153-96.494-95.312-96.494zM847.74 856.52c-4.786 7.976-36.364 20.64-64.658 20.64h-215.25c-113.973 0-214.482-63.8-215.47-63.8H272.426V430.584h63.795c2.613 0 4.947-.89 7.37-1.5.51-.126.99.035 1.5-.126.223-.062.86-.253 1.687-.51.83-.288 1.723-.448 2.52-.83 19.392-6.41 102.204-37.224 144.755-109.67 15.473-26.312 24.847-64.593 34.738-105.07 9.218-37.735 20.672-84.656 34.002-98.28 3.062-2.613 17.96-5.932 36.685 1.437 15.28 6.03 41.815 23.06 47.495 69.442 12.567 102.174-31.292 199.462-31.74 200.45-4.56 9.89-3.732 21.084 2.138 30.24 5.87 9.12 15.95 14.388 26.828 14.388h234.58c8.644 0 31.515 14.99 31.515 32.663.03 42.55-49.218 363.096-62.554 393.302z"/></svg>